<?xml version="1.0" encoding="utf-8"?><svg version="1.1" id="Layer_1" xmlns="http://www.w3.org/2000/svg" xmlns:xlink="http://www.w3.org/1999/xlink" x="0px" y="0px" viewBox="0 0 122.88 121.18" style="enable-background:new 0 0 122.88 121.18" xml:space="preserve"><g><path d="M83.42,75.18H39.63c-0.23,0-0.44-0.05-0.63-0.13H26.36v42.99H50.1v-16.8c0-2.57,1.05-4.91,2.75-6.61 c1.69-1.69,4.03-2.75,6.61-2.75h4.1c2.57,0,4.91,1.05,6.61,2.75c1.7,1.7,2.75,4.03,2.75,6.61v16.8h22.85V75.05H84.03 C83.84,75.13,83.63,75.17,83.42,75.18L83.42,75.18L83.42,75.18z M11.49,38.49h7.26v5.73h-7.26V38.49L11.49,38.49z M104.13,38.49 h7.26v5.73h-7.26V38.49L104.13,38.49z M68.4,22.97c0.04,0.76,0.05,1.25,0.03,1.47c-0.09,1.04-0.4,2.02-0.93,2.93 c-0.98,1.69-2.4,2.78-4.28,3.29c-0.13,0.03-0.26,0.06-0.38,0.09v4.93c0.03,0.05,0.06,0.1,0.09,0.16 c2.69,4.59,7.27,7.99,11.66,11.25c8.48,6.3,16.31,12.11,11.28,24.81h9.88V58.74L92.7,47.31c-0.22-0.84,0.27-1.69,1.11-1.92 c0.14-0.04,0.27-0.05,0.4-0.05v0h2.03v-10.1c0-0.23,0.05-0.44,0.13-0.63l9.37-28.2V1.57c0-0.87,0.7-1.57,1.57-1.57 c0.87,0,1.57,0.7,1.57,1.57v3.91c0.03,0.06,0.05,0.12,0.07,0.18l0,0l9.83,29.08c0.05,0.16,0.08,0.33,0.08,0.5h0v10.1h2.44 c0.87,0,1.57,0.7,1.57,1.57c0,0.23-0.05,0.44-0.13,0.64l-3.74,11.24v60.83c0,0.87-0.7,1.57-1.57,1.57H97.49h-0.16H71.34H51.67 H24.79h-0.32H4.69c-0.87,0-1.57-0.7-1.57-1.57V58.74L0.05,47.31c-0.22-0.84,0.27-1.69,1.11-1.92c0.14-0.04,0.27-0.05,0.4-0.05v0 H3.6v-10.1c0-0.23,0.05-0.44,0.13-0.63l9.37-28.2V1.57C13.1,0.7,13.8,0,14.67,0s1.57,0.7,1.57,1.57v3.91 c0.03,0.06,0.05,0.12,0.07,0.18l0,0l9.83,29.08c0.06,0.16,0.08,0.33,0.08,0.5h0v10.1h2.44c0.87,0,1.57,0.7,1.57,1.57 c0,0.23-0.05,0.44-0.13,0.64l-3.74,11.24v13.13h10.74c-5.54-13.15,2.95-19.26,11.75-25.58c4.39-3.16,8.87-6.38,11.32-10.56 c0.02-0.03,0.03-0.05,0.05-0.08v-4.86c-0.8-0.14-1.59-0.43-2.35-0.87c-1.7-0.98-2.8-2.41-3.29-4.29c-0.49-1.88-0.25-3.68,0.74-5.39 c0.73-1.26,1.84-2.24,3.33-2.93c-1.81,2.05-3.03,3.43-2.22,6.47c0.44,1.63,1.39,2.87,2.85,3.72c1.45,0.84,3,1.04,4.63,0.61 C66.98,27.33,67.52,25.58,68.4,22.97L68.4,22.97L68.4,22.97z M61.48,22.08l1.02-1.77l-1.37-1.53l2,0.43l1.03-1.78l0.21,2.04 l2.01,0.44l-1.87,0.83l0.21,2.04l-1.38-1.53L61.48,22.08L61.48,22.08L61.48,22.08z M107.57,11.31c-0.05,0.01-0.11,0.01-0.16,0.02 l-8.02,24.15v11.43c0,0.87-0.7,1.57-1.57,1.57h-1.56l2.57,9.58c0.05,0.15,0.08,0.32,0.08,0.49v14.24c0.1,0.21,0.16,0.44,0.16,0.69 v44.56h16.81V58.55h0.01c0-0.16,0.03-0.33,0.08-0.49l3.19-9.58h-1.84c-0.87,0-1.57-0.7-1.57-1.57V35.49L107.57,11.31L107.57,11.31z M14.92,11.31c-0.05,0.01-0.11,0.01-0.16,0.02L6.73,35.48v11.43c0,0.87-0.7,1.57-1.57,1.57H3.61l2.57,9.58 c0.05,0.15,0.08,0.32,0.08,0.49v59.49H22.9V73.48c0-0.36,0.12-0.69,0.32-0.95V58.55h0.01c0-0.16,0.03-0.33,0.08-0.49l3.19-9.58 h-1.84c-0.87,0-1.57-0.7-1.57-1.57V35.49L14.92,11.31L14.92,11.31z M53.24,118.04h16.53v-16.8c0-1.71-0.7-3.26-1.83-4.39 c-1.13-1.13-2.68-1.83-4.39-1.83h-4.1c-1.71,0-3.26,0.7-4.39,1.83c-1.13,1.13-1.83,2.68-1.83,4.39V118.04L53.24,118.04z M40.54,71.91h41.94c5-11.34-2.07-16.59-9.75-22.3c-4.03-2.99-8.21-6.1-11.21-10.22c-2.82,3.72-6.86,6.62-10.83,9.48 C42.7,54.6,35,60.14,40.54,71.91L40.54,71.91z"/></g></svg>