<?xml version="1.0" encoding="utf-8"?><svg version="1.1" id="Layer_1" xmlns="http://www.w3.org/2000/svg" xmlns:xlink="http://www.w3.org/1999/xlink" x="0px" y="0px" viewBox="0 0 103.4 122.88" style="enable-background:new 0 0 103.4 122.88" xml:space="preserve"><g><path d="M56.76,37.15c-0.09,0.04-0.17,0.09-0.26,0.14c-0.3,0.18-0.55,0.41-0.74,0.7c-0.2,0.32-0.35,0.72-0.44,1.23 c-0.49,2.95-0.2,7.71,0.14,13.21c0.17,2.86,0.36,5.92,0.46,9.27c0.11,3.63-0.08,7.05-0.26,10.45c-0.17,3.18-0.34,6.34-0.27,9.47 c0.01,0.33,0.02,0.72,0.04,1.16c0.01,0.31,0.03,0.69,0.06,1.16c0.25,4.4,0.64,8.24,1.72,11.71c1.04,3.35,2.76,6.43,5.68,9.48 c0.77,0.81,3.66,3.11,6.83,5.55c4.04,3.11,8.45,6.36,9.6,7.07c1.22,0.75,1.6,2.35,0.84,3.57s-2.35,1.6-3.57,0.84 c-1.3-0.8-5.91-4.19-10.05-7.38c-3.34-2.57-6.44-5.06-7.4-6.06c-3.54-3.7-5.63-7.45-6.9-11.54c-0.18-0.57-0.34-1.15-0.49-1.74 c-1.25,4.03-3.35,8.04-6.74,12.14c-0.81,0.98-3.75,3.76-6.92,6.65c-3.85,3.51-8.1,7.26-9.24,8.12c-1.15,0.86-2.78,0.64-3.64-0.51 c-0.86-1.15-0.64-2.78,0.51-3.64c1.03-0.78,5.12-4.39,8.88-7.81c3.05-2.78,5.81-5.37,6.41-6.1c8.41-10.19,7.56-20.32,6.58-32.01 c-0.7-8.4-1.47-17.55,0.78-28.26c0.44-2.1,0.59-3.79,0.08-4.81c-0.33-0.65-1.09-1.13-2.47-1.42c-1.43,1.72-2.78,4.34-4.04,7.56 c-1.57,4.02-2.98,8.94-4.25,14.28c-0.33,1.4-1.73,2.26-3.13,1.93c-1.4-0.33-2.26-1.73-1.93-3.13c1.32-5.52,2.79-10.67,4.48-14.97 c1.61-4.12,3.44-7.49,5.54-9.73L48.68,7c-1.09-1.12-2.03-1.67-2.78-1.54c-1.09,0.2-2.33,1.62-3.75,4.51L31.43,37.74 c-2.73,7.07-4.3,11.75-5.03,16.52c-0.74,4.76-0.68,9.81-0.16,17.66l0.63,9.57c0.06,0.97-0.42,1.85-1.18,2.34L4.1,99.17 c-1.17,0.83-2.79,0.56-3.62-0.61c-0.83-1.17-0.56-2.79,0.61-3.62l20.49-14.57l-0.53-8.13c-0.54-8.19-0.59-13.53,0.22-18.78 c0.81-5.24,2.46-10.19,5.32-17.59L37.33,8.08c0.03-0.1,0.07-0.2,0.12-0.3c2.22-4.57,4.75-6.92,7.54-7.42 c2.25-0.4,4.41,0.38,6.49,2.17c1.56-1.34,3.18-2.26,4.9-2.48c2.75-0.35,5.29,0.91,7.52,4.69c0.11,0.16,0.2,0.34,0.28,0.54 l9.13,24.1c0.66,1.74,1.13,2.95,1.59,4.14c3.92,10.15,7.13,18.45,7.38,30.4c0.07,3,0.12,6.09,0.03,9.22 c-0.08,2.72-0.28,5.45-0.67,8.16l20.8,16.73c1.12,0.9,1.29,2.53,0.4,3.65c-0.9,1.12-2.53,1.29-3.65,0.4L77.2,84.4 c-0.76-0.61-1.09-1.57-0.93-2.47l0,0c0.53-3.01,0.77-5.99,0.86-8.93c0.09-3.03,0.03-6.05-0.03-8.98 C76.85,53,73.79,45.09,70.05,35.4c-0.58-1.51-1.18-3.06-1.61-4.18L59.38,7.3c-0.95-1.6-1.71-2.18-2.35-2.1 c-0.77,0.1-1.71,0.78-2.75,1.8l5.95,26.18c0.35,0.44,0.7,0.9,1.04,1.39c0.47,0.66,0.91,1.34,1.33,2.03 c1.75,2.88,3.24,6.23,4.57,10.08c1.32,3.8,2.48,8.06,3.58,12.82c0.32,1.4-0.55,2.79-1.95,3.11c-1.4,0.32-2.79-0.55-3.11-1.95 c-1.07-4.65-2.18-8.74-3.41-12.29c-1.22-3.51-2.56-6.53-4.11-9.08c-0.37-0.61-0.75-1.19-1.13-1.73 C56.95,37.42,56.85,37.29,56.76,37.15L56.76,37.15z M48.14,32.99c1.45,0.44,2.59,1.08,3.47,1.9c0.62-0.86,1.37-1.54,2.21-2.05 c0.29-0.18,0.6-0.33,0.91-0.47l-3.24-14.23L48.14,32.99L48.14,32.99z"/></g></svg>